<svg xmlns="http://www.w3.org/2000/svg" width="920" height="109" xml:space="preserve"><path fill="#9BC819" d="M81.3 0v83h757.4V0H81.3z"/><path fill="#82A51F" d="M825.9 86.5h-56.6V107l56.6-20.5z"/><path fill="#9BC819" d="M920 25.9h-77.3v57.5c0 .2-.1.4-.2.6 0 0 0 .1-.1.1-.1.2-.3.4-.5.5 0 0-.1 0-.1.1-.2.2-.4.3-.7.4L775 109h145l-27.3-41.6L920 25.9z"/><path fill="#82A51F" d="M150.7 107V86.5H94.1l56.6 20.5z"/><path fill="#9BC819" d="M27.3 67.4 0 109h145L78.9 85c-.2-.1-.5-.2-.7-.4 0 0-.1 0-.1-.1-.2-.1-.3-.3-.5-.5 0 0 0-.1-.1-.1-.1-.2-.2-.4-.2-.6V25.8H0l27.3 41.6z"/></svg>