<svg xmlns="http://www.w3.org/2000/svg" width="284" height="44" xml:space="preserve"><path fill="#FFF" d="M0 16.2v4.33c3.12-.01 6.21.57 9.11 1.7.5.2.99.41 1.46.64 1.11-.53 2.27-.97 3.45-1.32 2.33-.68 4.74-1.02 7.16-1.02 3.13-.01 6.24.57 9.15 1.7.5.2.99.41 1.46.64 1.11-.53 2.27-.97 3.45-1.32a25.22 25.22 0 0 1 7.12-1.02V16.2H0zm26.53 16.44a5.27 5.27 0 0 0 5.27 5.27c1.05 0 2.07-.31 2.94-.9a5.278 5.278 0 0 0 2.32-4.37c-.01-.57-.12-1.13-.34-1.66-.26-.64-.62-1.24-1.05-1.79a13.45 13.45 0 0 0-3.88-3.24c-1.17.66-2.24 1.48-3.19 2.44-.79.79-1.41 1.73-1.81 2.78-.16.47-.25.97-.26 1.47z"/><path fill="#FFF" d="M36.95 26.5c1.06 1.07 1.89 2.35 2.42 3.76.27.76.42 1.56.42 2.37 0 4.42-3.58 8-8 8s-8-3.58-8-8c.02-1.23.33-2.43.92-3.51.63-1.16 1.44-2.22 2.42-3.11.54-.51 1.12-.98 1.73-1.42-.42-.15-.85-.3-1.29-.43-2.08-.61-4.23-.91-6.39-.91-2.62-.01-5.22.44-7.68 1.33.8.56 1.54 1.2 2.22 1.9 1.06 1.07 1.89 2.35 2.42 3.76.27.76.42 1.56.42 2.37 0 4.42-3.58 8-8 8s-8-3.58-8-8c.02-1.23.33-2.43.92-3.51.63-1.16 1.44-2.22 2.42-3.11.54-.51 1.12-.98 1.73-1.42-.42-.15-.85-.3-1.29-.43-2.06-.6-4.2-.91-6.34-.91V44h42.37V23.26c-2.61 0-5.19.45-7.64 1.33.8.57 1.54 1.21 2.22 1.91z"/><path fill="#FFF" d="M5.31 32.64a5.27 5.27 0 0 0 5.27 5.27c1.05 0 2.07-.31 2.94-.9a5.253 5.253 0 0 0 2.32-4.37c-.01-.57-.12-1.13-.34-1.66-.26-.64-.62-1.24-1.05-1.79a13.45 13.45 0 0 0-3.88-3.24c-1.17.66-2.24 1.48-3.18 2.43-.79.79-1.41 1.73-1.81 2.78-.18.48-.27.98-.27 1.48zm57.87-9.97a3.58 3.58 0 0 0-3.33-1.92 3.58 3.58 0 0 0-3.33 1.92c-.73 1.28-1.09 3.48-1.09 6.59s.36 5.31 1.09 6.59a3.58 3.58 0 0 0 3.33 1.92 3.58 3.58 0 0 0 3.33-1.92c.73-1.28 1.09-3.48 1.09-6.59s-.36-5.31-1.09-6.59zm3.4 15.75c-1.47 1.9-3.71 2.85-6.72 2.85s-5.25-.95-6.74-2.85-2.22-4.95-2.22-9.15.74-7.25 2.22-9.15 3.73-2.85 6.74-2.85 5.25.95 6.74 2.85 2.22 4.95 2.22 9.15-.75 7.25-2.24 9.15zm8.25-12.23c-.26.23-.64.27-.94.1a.857.857 0 0 1-.5-.8v-1.28c-.02-1.15.51-2.23 1.44-2.91l3.42-2.62c.94-.72 2.09-1.1 3.27-1.09h.96c.48 0 .94.19 1.26.54.34.34.53.8.53 1.28v19.71c0 .48-.19.94-.53 1.28-.32.35-.78.55-1.26.54h-.96c-.48 0-.95-.19-1.28-.54-.35-.33-.55-.8-.54-1.28V22.51l-.03-.03-.03.03-4.81 3.68zm33.67-2.11c-.02 2.08-.69 4.09-1.9 5.78a42.368 42.368 0 0 1-7.38 7.34c-.04.04-.06.08-.06.1 0 .02.01.03.02.03h7.56c.48 0 .94.19 1.28.53.35.33.55.78.54 1.26 0 .48-.19.95-.54 1.28-.33.35-.8.54-1.28.54H94.99a1.7 1.7 0 0 1-1.26-.54c-.34-.34-.53-.8-.53-1.28-.04-1.14.47-2.22 1.38-2.91a47.42 47.42 0 0 0 7.42-6.88 7.933 7.933 0 0 0 1.89-4.8c0-2.37-1.27-3.55-3.81-3.55-1.63.07-3.24.44-4.74 1.09-.37.17-.8.13-1.14-.1-.33-.2-.54-.57-.53-.96v-.54c0-.54.16-1.07.46-1.52.29-.44.72-.77 1.23-.91 1.74-.5 3.54-.76 5.34-.77 2.08-.14 4.13.5 5.76 1.79a6.361 6.361 0 0 1 2.04 5.02zm16.12-1.41a3.58 3.58 0 0 0-3.33-1.92 3.58 3.58 0 0 0-3.33 1.92c-.73 1.28-1.09 3.48-1.09 6.59s.36 5.31 1.09 6.59a3.58 3.58 0 0 0 3.33 1.92 3.58 3.58 0 0 0 3.33-1.92c.73-1.28 1.09-3.48 1.09-6.59s-.36-5.31-1.09-6.59zm3.4 15.75c-1.47 1.9-3.71 2.85-6.72 2.85s-5.25-.95-6.74-2.85c-1.48-1.9-2.22-4.95-2.22-9.15s.74-7.25 2.22-9.15c1.48-1.9 3.73-2.85 6.74-2.85s5.25.95 6.74 2.85c1.48 1.9 2.22 4.95 2.22 9.15s-.75 7.25-2.24 9.15zm7.61-5.06c-.46 0-.89-.18-1.22-.5a1.61 1.61 0 0 1-.51-1.2c-.01-.45.18-.89.51-1.2.32-.32.76-.5 1.22-.5h7.23c.46 0 .89.18 1.22.5.33.31.52.75.51 1.2.01.45-.18.89-.51 1.2-.32.32-.76.5-1.22.5h-7.23zm16.07-7.17c-.26.23-.64.27-.94.1a.857.857 0 0 1-.5-.8v-1.28c-.02-1.15.51-2.23 1.44-2.91l3.42-2.62c.94-.72 2.09-1.1 3.27-1.09h.96c.48 0 .94.19 1.26.54.34.34.53.8.53 1.28v19.71c0 .48-.19.94-.53 1.28a1.7 1.7 0 0 1-1.27.54h-.96c-.48 0-.95-.19-1.28-.54-.35-.33-.55-.8-.54-1.28V22.51l-.03-.03-.03.03-4.8 3.68zm20.41 14.6c-.51-.13-.96-.43-1.26-.85-.33-.43-.5-.95-.5-1.49v-.32c-.01-.41.19-.8.53-1.02.32-.25.75-.32 1.14-.19 1.33.44 2.72.69 4.12.73 3.39 0 5.09-1.54 5.09-4.61 0-2.54-1.23-3.81-3.68-3.81-.63 0-1.24.12-1.82.35-1.04.5-2.15.82-3.3.96h-.22c-.47.01-.93-.19-1.25-.54-.33-.34-.51-.8-.48-1.28l.48-9.31c.03-.49.24-.95.59-1.3.34-.35.81-.54 1.3-.53h9.98c.48 0 .94.19 1.26.54.34.34.53.8.53 1.28.01.48-.19.93-.53 1.26-.33.34-.79.53-1.26.53h-7.46a.258.258 0 0 0-.29.22v.07l-.26 5.09c0 .02.01.03.02.03h.04l.03-.03c1.08-.51 2.26-.78 3.46-.77 1.97-.12 3.9.56 5.36 1.89a7.174 7.174 0 0 1 1.9 5.34c0 5.49-3.12 8.23-9.37 8.23-1.39.01-2.78-.15-4.15-.47zm25.41-10.44c-2.69.87-4.03 2.2-4.03 3.97-.03 1.05.45 2.04 1.28 2.67a5.34 5.34 0 0 0 3.39 1.01c1.2.07 2.38-.29 3.34-1.01.81-.65 1.27-1.64 1.24-2.67.02-.89-.36-1.75-1.03-2.34a9.124 9.124 0 0 0-3.65-1.63.832.832 0 0 0-.54 0zm.64-9.82c-1.03-.06-2.06.23-2.9.83-.68.53-1.07 1.35-1.04 2.21 0 1.56 1.26 2.7 3.78 3.42.17.04.34.04.51 0 2.43-.77 3.65-1.91 3.65-3.42.03-.86-.37-1.69-1.06-2.21a4.64 4.64 0 0 0-2.94-.83zm6.59 18.92a10.576 10.576 0 0 1-6.59 1.82c-2.34.14-4.66-.5-6.59-1.82a5.868 5.868 0 0 1-2.37-4.9c0-1.18.41-2.33 1.15-3.25.91-1.1 2.09-1.94 3.42-2.45.03 0 .06-.02.06-.05v-.01c0-.02-.01-.03-.02-.03h-.01a7.321 7.321 0 0 1-2.86-2.4 5.56 5.56 0 0 1-1-3.23c-.03-1.69.79-3.28 2.18-4.24 1.79-1.17 3.91-1.74 6.04-1.62 2.14-.13 4.26.44 6.05 1.62 1.39.96 2.21 2.55 2.18 4.24 0 2.22-1.32 3.94-3.97 5.15-.02 0-.03.02-.03.06 0 .02.01.03.02.03h.01c3.13 1.19 4.7 3.25 4.7 6.18.06 1.92-.82 3.75-2.37 4.9zm13.79-18.76c-1.19-.07-2.35.36-3.22 1.18-.82.91-1.24 2.11-1.17 3.33-.09 1.32.33 2.61 1.17 3.63.84.87 2.01 1.33 3.22 1.26 1.19.05 2.35-.43 3.15-1.31a5.243 5.243 0 0 0 1.17-3.58c.06-1.21-.38-2.4-1.22-3.28a4.167 4.167 0 0 0-3.1-1.23zm-.96 12.58c-2.12.12-4.2-.64-5.74-2.1a8.053 8.053 0 0 1-2.06-5.9c-.11-2.2.76-4.33 2.36-5.84a9.163 9.163 0 0 1 6.4-2.16c2.43-.16 4.81.78 6.48 2.54 1.5 1.7 2.26 4.26 2.26 7.7 0 4.73-.86 8.21-2.59 10.43-1.73 2.22-4.25 3.33-7.58 3.32-1.11 0-2.21-.1-3.3-.29-.51-.08-.96-.35-1.28-.75-.33-.4-.52-.9-.51-1.42-.01-.42.19-.82.53-1.07.34-.26.78-.35 1.2-.24 1.06.23 2.15.35 3.23.35 1.53.08 3.03-.5 4.11-1.58a6.65 6.65 0 0 0 1.62-4.59v-.07l-.06.03a7.392 7.392 0 0 1-5.07 1.64zm15.4.1c-.46 0-.89-.18-1.22-.5a1.61 1.61 0 0 1-.51-1.2c-.01-.45.18-.89.51-1.2.32-.32.76-.5 1.22-.5h7.23c.46 0 .89.18 1.22.5.33.31.52.75.51 1.2.01.45-.18.89-.51 1.2-.32.32-.76.5-1.22.5h-7.23zm20.92-3.01c-2.69.87-4.03 2.19-4.03 3.96-.03 1.05.45 2.04 1.28 2.67a5.34 5.34 0 0 0 3.39 1.01c1.2.07 2.38-.29 3.34-1.01.81-.65 1.27-1.64 1.24-2.67.02-.89-.35-1.75-1.02-2.34a9.124 9.124 0 0 0-3.65-1.63.8.8 0 0 0-.55.01zm.64-9.83c-1.03-.06-2.06.23-2.9.83-.68.53-1.07 1.35-1.04 2.21 0 1.56 1.26 2.7 3.78 3.42.17.04.34.04.51 0 2.43-.77 3.65-1.91 3.65-3.43.03-.86-.37-1.69-1.06-2.21-.85-.59-1.89-.88-2.94-.82zm6.6 18.92a10.605 10.605 0 0 1-6.6 1.82c-2.34.14-4.65-.5-6.59-1.82a5.868 5.868 0 0 1-2.37-4.9c0-1.18.41-2.33 1.16-3.25.91-1.1 2.09-1.94 3.42-2.45.03 0 .06-.02.06-.05v-.01c0-.02-.01-.03-.02-.03h-.01a7.321 7.321 0 0 1-2.86-2.4 5.665 5.665 0 0 1-1.01-3.23c-.03-1.69.79-3.28 2.18-4.24a9.945 9.945 0 0 1 6.04-1.61c2.14-.13 4.26.44 6.05 1.62 1.39.96 2.21 2.55 2.18 4.24 0 2.22-1.32 3.94-3.97 5.15-.02 0-.03.02-.03.06 0 .02.01.03.02.03h.01c3.13 1.19 4.7 3.25 4.7 6.18a5.88 5.88 0 0 1-2.36 4.89zm13.98-11.02a4.11 4.11 0 0 0-3.14 1.25c-.82.91-1.24 2.11-1.18 3.33-.07 1.29.36 2.56 1.2 3.54.8.87 1.94 1.34 3.12 1.3 1.2.07 2.37-.38 3.22-1.24.84-1 1.26-2.29 1.17-3.6.07-1.23-.36-2.44-1.18-3.36a4.28 4.28 0 0 0-3.21-1.22zm0 12.84c-5.82 0-8.74-3.52-8.74-10.56 0-4.48.88-7.84 2.64-10.08a9.028 9.028 0 0 1 7.54-3.36c1.01.01 2.01.09 3.01.26.51.08.96.36 1.26.77.33.41.5.92.5 1.44.01.42-.18.82-.53 1.06-.34.25-.79.34-1.2.22-.95-.22-1.93-.33-2.91-.32-1.47-.05-2.88.54-3.89 1.6a7.654 7.654 0 0 0-1.84 4.58v.06l.06-.03a7.309 7.309 0 0 1 5.06-1.63c2.11-.13 4.18.61 5.74 2.03a7.57 7.57 0 0 1 2.06 5.65c.13 2.28-.74 4.51-2.37 6.11a9.017 9.017 0 0 1-6.39 2.2zM153.87 5.03c1.34-.34 2.66-.75 3.95-1.23.34-.13.78-.32 1.17-.48l-.54-1.26c-.35.21-.71.39-1.09.54-1.14.45-2.3.82-3.49 1.12V1.83c0-.35.02-.7.07-1.04h-1.48c.05.34.07.69.08 1.04v5.45c-.04.79.58 1.46 1.37 1.5.56.08 1.12.12 1.68.11 1.19 0 2.38-.07 3.56-.21V7.22c-1.14.24-2.31.35-3.48.35-.39 0-.77-.02-1.16-.06-.44-.09-.64-.2-.64-.63V5.03zm24.29-2.18c0-.29.02-.69.03-.92-.17.01-.58.02-.87.02h-.05l.69-.29c-.23-.46-.49-.91-.78-1.34l-.82.34c.28.41.53.84.74 1.29h-4.82c-.35 0-.86-.02-1.24-.06v1.39c.28-.02.82-.04 1.24-.04h4.5v4.14h-4.62c-.45 0-.9-.03-1.24-.06v1.43c.33-.03.89-.06 1.28-.06h4.57c0 .18 0 .36-.01.52h1.45c-.03-.3-.05-.83-.05-1.18V2.85zM177.7.34c.3.43.56.88.8 1.34l.83-.36c-.19-.35-.55-.96-.8-1.32l-.83.34zm18.79.35-.79.33c.29.45.55.91.78 1.39l.8-.35c-.19-.37-.54-1-.79-1.37zm1.18-.45-.79.33c.3.44.57.9.8 1.38l.8-.35c-.25-.47-.52-.92-.81-1.36zm-7.06 5.32c-.39.99-.92 1.93-1.56 2.78l1.4.59c.6-.89 1.1-1.85 1.48-2.86.35-.98.63-1.99.85-3.01.04-.22.15-.71.24-1l-1.46-.3c-.14 1.3-.46 2.58-.95 3.8zm4.94-.21c.42 1.15.76 2.33 1.04 3.53l1.48-.48c-.28-.99-.81-2.59-1.17-3.49-.37-.97-1.06-2.51-1.47-3.28l-1.33.43a27.59 27.59 0 0 1 1.45 3.29zm6.05-4.28-.94 1c.89.65 1.73 1.37 2.5 2.16l1.02-1.05c-.8-.77-1.67-1.48-2.58-2.11zm-1.25 6.66.84 1.32c1.31-.24 2.57-.72 3.71-1.41 1.52-.91 2.79-2.18 3.7-3.7l-.78-1.41a9.479 9.479 0 0 1-3.64 3.89 10.26 10.26 0 0 1-3.83 1.31zm22.19-5.91c-.28.08-.58.12-.87.12h-2.01l.03-.05c.12-.22.37-.67.61-1.02l-1.46-.48c-.11.37-.26.72-.45 1.05a8.836 8.836 0 0 1-3.12 3.22l1.12.83c.96-.67 1.81-1.49 2.52-2.42h2.81c-.27 1-.75 1.93-1.42 2.73a8.002 8.002 0 0 1-4.03 2.47l1.18 1.06a9.395 9.395 0 0 0 4.04-2.82c.78-1 1.37-2.13 1.74-3.34.09-.25.2-.49.33-.72l-1.02-.63zm27.96 3.55c-.39.99-.92 1.92-1.55 2.78l1.4.59c.6-.89 1.09-1.85 1.47-2.86.35-.98.64-1.99.85-3.01.04-.22.16-.71.24-.99l-1.46-.31c-.14 1.3-.46 2.58-.95 3.8zm4.94-.21c.42 1.16.76 2.33 1.04 3.53l1.48-.48a49.2 49.2 0 0 0-1.16-3.49c-.38-.96-1.07-2.5-1.48-3.28l-1.33.43a28.32 28.32 0 0 1 1.45 3.29zm16.94-2.29v4.15h-4.83V2.87h4.83zm1.34-.32c0-.3 0-.67.02-.97-.36.02-.74.02-.99.02h-5.5c-.27 0-.65-.01-1.06-.02.02.28.02.69.02.97v4.89c0 .48-.02 1.35-.03 1.4h1.38l-.01-.55h4.82l-.01.55h1.38c0-.04-.02-1-.02-1.39v-4.9zm2.13 3.06c.37-.03 1.04-.05 1.61-.05h5.37c.42 0 .93.04 1.17.05V4.04c-.26.02-.71.06-1.17.06h-5.37c-.52 0-1.25-.03-1.61-.06v1.57z"/></svg>