<svg xmlns="http://www.w3.org/2000/svg" width="256" height="112" xml:space="preserve"><path fill-rule="evenodd" clip-rule="evenodd" fill="#0060A3" d="M159.72 68.53c-21.12 8.33-42.31 8.32-63.56-.05.77-2.46 1.5-4.8 2.22-7.14 1.83-5.92 3.68-11.83 5.47-17.76.15-.57.13-1.16-.05-1.72-2.48-8.06-4.98-16.11-7.5-24.16-.03-.1-.04-.22-.09-.52 21.17-8.39 42.32-8.4 63.64.01-.68 2.21-1.34 4.33-2 6.45-1.87 6.02-3.78 12.03-5.58 18.07-.2.85-.16 1.74.12 2.57 2.42 7.96 4.91 15.9 7.38 23.84-.01.13-.02.27-.05.41zm-1.8-50.43c-20-7.53-39.87-7.53-59.77-.02.07.38.08.57.14.74 2.35 7.55 4.72 15.1 7.02 22.67.25.8.27 1.66.06 2.47-1.82 6.07-3.73 12.12-5.62 18.18-.55 1.77-1.09 3.54-1.65 5.36a80.39 80.39 0 0 0 33.81 5.61c8.9-.38 17.67-2.27 25.93-5.6-.03-.21-.07-.42-.12-.63-2.4-7.73-4.79-15.47-7.18-23.2a2.68 2.68 0 0 1-.07-1.51c1.49-4.89 3.03-9.76 4.55-14.64.97-3.1 1.91-6.2 2.9-9.43z"/><path fill-rule="evenodd" clip-rule="evenodd" fill="#FFF" d="M157.92 18.1c-1 3.24-1.94 6.33-2.9 9.43-1.52 4.88-3.06 9.75-4.55 14.64-.12.5-.09 1.03.07 1.51 2.38 7.74 4.77 15.47 7.18 23.2.05.21.09.42.12.63a78.275 78.275 0 0 1-25.93 5.6A80.415 80.415 0 0 1 98.1 67.5c.56-1.82 1.1-3.59 1.65-5.36 1.88-6.06 3.79-12.11 5.62-18.18.21-.81.19-1.67-.06-2.47-2.3-7.57-4.67-15.11-7.02-22.67-.06-.18-.07-.37-.14-.74 19.91-7.51 39.77-7.51 59.77.02zm-58.36.68c.07.32.09.5.15.67 2.31 7.45 4.63 14.89 6.91 22.35.19.59.22 1.21.08 1.81-1.09 3.69-2.26 7.35-3.4 11.02-1.25 4.02-2.49 8.04-3.77 12.17a78.175 78.175 0 0 0 26.39 5.21c10.42.3 20.8-1.46 30.53-5.19-.07-.27-.11-.45-.16-.62-2.34-7.56-4.67-15.11-7-22.67-.13-.41-.14-.85-.03-1.27 1.81-5.92 3.65-11.84 5.49-17.75.58-1.87 1.15-3.75 1.76-5.73a81.038 81.038 0 0 0-56.95 0z"/><path fill-rule="evenodd" clip-rule="evenodd" fill="#0060A3" d="M149.29 43.53c-.13-.41-.14-.85-.03-1.27 1.81-5.92 3.65-11.84 5.49-17.75.58-1.87 1.15-3.75 1.76-5.73a80.9 80.9 0 0 0-56.94 0c.07.32.09.5.15.67 2.31 7.45 4.63 14.89 6.91 22.35.19.59.22 1.21.08 1.81-1.09 3.69-2.26 7.35-3.4 11.02-1.25 4.02-2.49 8.04-3.77 12.17a78.175 78.175 0 0 0 26.39 5.21c10.42.3 20.8-1.46 30.53-5.19-.07-.27-.11-.45-.16-.62-2.35-7.55-4.68-15.11-7.01-22.67z"/><path fill-rule="evenodd" clip-rule="evenodd" fill="#FFF" d="M123.56 34.67c-2.1-.12-2.04-.1-1.58-2.37.01-.63-.15-1.25-.47-1.8-1.24-2.94-.61-3.71 2.6-4.08 3-.42 6.06-.35 9.04.22 1.96.41 2.33 1.16 1.66 3.04-.24.59-.44 1.19-.61 1.8-.03.41-.01.83.05 1.24.09.54.07 1.1-.07 1.63-.11.23-.87.15-1.33.21-.13.02-.27.05-.4.07l-.36.43c.35.12.69.28 1 .48a7.793 7.793 0 0 1 2.87 6.2c.08 4.86.04 9.73.03 14.59 0 1.57-.56 2.55-2.13 2.67-3.2.23-6.35.17-9.6.1-.82-.03-1.64-.13-2.44-.3-1.03-.1-1.8-.99-1.75-2.02.02-5.49.05-10.99.22-16.48.13-1.82 1.04-3.5 2.49-4.61.35-.25.73-.48 1.13-.66l-.35-.36zm9.09-.97c.61-1.74 1.21-3.34 1.73-4.96.25-.76-.2-1.23-.92-1.38-3.59-.75-7.3-.74-10.89.04-.39.08-.99.83-.91 1.11.47 1.73 1.1 3.42 1.71 5.2.85-.58 1.3-1.6 1.15-2.62.01-1.5.01-1.52 1.53-1.54 1.38-.02 2.77.05 4.15-.01 1.01-.04 1.43.28 1.31 1.35a2.63 2.63 0 0 0 1.14 2.81zm-7.53.67h5.87c-.99-.64-5.1-.62-5.87 0zM121.86 21.2c.41-1.09.85-2.18 1.33-3.32-.26.02-.43.03-.6.04-.23.02-.35-.07-.37-.3-.01-.24-.03-.48-.05-.72-.01-.18.06-.29.27-.3.92-.06 1.83-.11 2.75-.15.21-.01.29.08.29.27 0 .26.01.51.02.77.01.19-.07.29-.27.29-.13 0-.27.01-.4.02-.24.02-.27.07-.15.27.31.57.62 1.14.92 1.71l.51.99c.04.07.09.15.15.26.07-.11.12-.18.15-.26.46-.92.93-1.84 1.42-2.76.13-.25.12-.28-.19-.28h-.43c-.19 0-.3-.08-.31-.27-.01-.27-.01-.53-.01-.8-.02-.13.07-.25.2-.26h.06c.93-.01 1.87-.01 2.81.02.15-.01.27.1.28.25v.04c.01.26 0 .53-.02.8-.01.17-.12.26-.3.25-.76-.02-.6-.1-.98.57a82.65 82.65 0 0 0-1.9 3.59c-.15.31-.13.34.2.34.58 0 .58 0 .59.57v.48a.26.26 0 0 1-.22.3h-.07c-.8.01-1.61.03-2.41.06-.25.01-.34-.08-.35-.34-.02-.23-.02-.47-.03-.7-.03-.15.06-.29.21-.32.03-.01.06-.01.09 0 .1 0 .21-.01.31-.01.26.01.31-.05.19-.29-.4-.78-.82-1.57-1.25-2.34-.1-.17-.2-.35-.3-.52h-.08c-.46 1.07-.9 2.14-1.34 3.29.2-.01.35-.03.49-.03.4-.01.46.04.48.43l.03.48c.02.3-.06.42-.36.44l-2.46.15a.288.288 0 0 1-.22-.18c-.05-.29-.08-.57-.09-.86-.01-.16.09-.25.25-.27s.29-.03.43-.04c.17-.01.21-.08.12-.23-.27-.42-.53-.84-.8-1.26-.54-.83-1.11-1.65-1.67-2.47a.517.517 0 0 0-.62-.27c-.08.02-.17.03-.25.03-.16 0-.28-.06-.3-.23-.04-.27-.07-.54-.11-.81-.02-.16.06-.25.22-.27.94-.12 1.88-.23 2.82-.3.11.02.21.09.25.19.05.29.08.59.07.89 0 .08-.14.19-.24.22-.16.03-.33.05-.5.06-.25.03-.28.09-.14.29.46.67.9 1.35 1.34 2.02l.49.76.05.02zM149.51 23.98c.06-.13.1-.2.12-.27l.72-2.43c.08-.29.06-.32-.25-.41-.73-.21-.71-.12-.51-.85s.11-.65.86-.44c.72.2 1.43.42 2.14.65.3.1.33.16.24.43-.07.21-.14.43-.21.64-.09.26-.14.28-.43.2-.12-.04-.24-.08-.37-.11-.19-.05-.31-.01-.38.2-.38 1.27-.77 2.53-1.17 3.78-.06.19-.01.29.18.33l.02.01c.7.2.64.22.43.87-.2.62-.23.64-.84.43-.64-.21-1.29-.43-1.94-.62-.23-.07-.28-.2-.21-.41.06-.19.12-.38.17-.58.1-.36.12-.37.49-.27l.37.11.06-.09c-.81-1.27-1.66-2.52-2.6-3.81-.04.12-.07.18-.09.24-.2.84-.4 1.68-.61 2.51-.05.2.02.28.2.32.16.03.31.09.46.13.15.02.26.17.24.32 0 .02-.01.05-.02.07-.07.26-.15.52-.25.78-.05.08-.14.13-.23.12-.83-.2-1.65-.39-2.48-.59a.329.329 0 0 1-.17-.28c.04-.27.09-.54.16-.8.02-.13.14-.22.27-.2h.01c.04 0 .08.01.12.02.56.1.56.1.69-.47.27-1.18.53-2.36.8-3.53.05-.21-.01-.3-.22-.34-.75-.15-.6-.16-.48-.74.03-.15.07-.3.1-.45s.11-.22.29-.18c.87.19 1.74.38 2.6.6.28.07.33.17.27.43-.05.21-.1.42-.16.63-.07.24-.17.29-.42.23-.17-.04-.35-.08-.52-.11-.02 0-.05.02-.12.06.92 1.25 1.8 2.52 2.67 3.87zM133.83 16.6c.72.05 1.44.11 2.16.18.5-.01.91.39.91.88 0 .06 0 .12-.01.18l-.12 1.1c.01.16-.11.29-.27.3-.03 0-.07 0-.1-.01-.03 0-.07-.01-.1-.01-.57-.06-.59-.08-.55-.62.04-.41-.05-.51-.49-.55-1-.09-2-.16-3.01-.22-.32-.02-.42.07-.44.38-.01.29-.03.58-.04.87-.01.31.08.41.39.42 1.15.06 2.31.17 3.46.26.55.03.96.51.93 1.05 0 .02 0 .04-.01.06-.12.76-.18 1.52-.26 2.28-.04.49-.47.86-.96.82-1.32-.12-2.65-.22-3.97-.29a.943.943 0 0 1-.85-1.03c.01-.45.05-.9.08-1.35.01-.2.11-.28.32-.27.76.03.74 0 .7.75-.02.44.07.54.5.57.89.06 1.77.14 2.66.23.46.05.6-.08.65-.55.03-.3.06-.59.08-.89.02-.35-.07-.45-.42-.48-1.14-.11-2.28-.2-3.42-.23-.55.03-1.03-.39-1.06-.94 0-.06 0-.12.01-.18.02-.61.03-1.22.06-1.83-.01-.29.1-.56.3-.77.18-.18.42-.27.67-.25.74.05 1.47.09 2.2.14zM117.21 22.97c-.16-.21-.32-.43-.5-.63-.06-.04-.14-.06-.22-.04-.78.1-1.56.24-2.34.36-.21.02-.38.17-.42.37-.06.2-.12.4-.2.66.26-.05.44-.09.62-.12.32-.05.4.01.46.32.04.21.07.41.12.62.06.14 0 .3-.14.37-.03.01-.06.02-.09.02-.83.15-1.67.31-2.5.46a.295.295 0 0 1-.23-.16c-.09-.28-.14-.56-.2-.85-.04-.11.02-.23.13-.27.03-.01.05-.01.08-.01.47-.01.6-.31.72-.71.39-1.34.85-2.67 1.33-4 .03-.08.05-.17.1-.3-.2.04-.36.07-.52.1-.25.04-.36-.02-.41-.26s-.09-.47-.14-.71c-.04-.2.04-.32.27-.37.9-.17 1.8-.32 2.7-.46.2-.03.29.04.32.21l.12.84c.03.18-.06.27-.24.3-.21.03-.41.07-.67.11.04.09.09.17.15.25 1.01 1.2 1.98 2.42 2.92 3.65.08.11.22.17.35.13.66-.08.66-.07.74.59.08.69.08.68-.59.77s-1.33.18-2 .28c-.3.05-.39-.02-.44-.34l-.09-.65c-.04-.15.04-.3.19-.35.02-.01.05-.01.07-.01l.56-.09-.01-.08zm-2.15-1.39c.23-.04.45-.07.68-.12s.24-.15.11-.31c-.28-.35-.57-.68-.86-1.02-.12-.14-.22-.13-.29.04-.17.43-.33.86-.48 1.3-.06.18.02.25.19.22.22-.03.44-.08.65-.11zM137.57 20.58c.11-.86.23-1.73.32-2.59.07-.54.55-.92 1.09-.85.02 0 .04.01.07.01 1.37.22 2.74.42 4.1.68.54.04.95.51.92 1.05 0 .05-.01.1-.02.15-.33 1.68-.68 3.36-1.03 5.04a.96.96 0 0 1-1.08.83c-.04-.01-.09-.01-.13-.03-1.24-.26-2.5-.47-3.76-.62a.945.945 0 0 1-.79-1.07c.1-.86.2-1.73.31-2.6zm4.91.79.33-1.76c.07-.36-.03-.51-.41-.58-.98-.18-1.97-.34-2.95-.49-.43-.06-.58.05-.64.46-.13.91-.25 1.82-.38 2.73-.04.27-.08.54-.11.81s.08.46.3.5c.98.16 1.95.33 2.92.51.37.07.53-.07.6-.44.12-.57.23-1.16.34-1.74zM108.28 26.34c-.79.22-1.58.45-2.36.7-.35.11-.47.05-.59-.3-.05-.17-.11-.34-.16-.51-.06-.12-.01-.27.12-.34.02-.01.04-.02.06-.02l.05-.01c.73-.22.6-.2.4-.83-.35-1.15-.71-2.31-1.07-3.46-.09-.3-.11-.31-.43-.2-.71.24-.69.23-.91-.43s-.24-.6.46-.82c.74-.23 1.49-.46 2.24-.67.32-.09.38-.06.46.23.07.22.12.45.18.68.05.18-.04.3-.22.35-.15.05-.31.1-.47.13-.22.05-.27.16-.21.36.2.64.38 1.28.57 1.92s.38 1.28.56 1.93c.06.21.15.26.36.2.71-.22 1.43-.42 2.16-.59.21-.05.28-.15.22-.36-.08-.28-.14-.56-.22-.84-.06-.15.01-.33.17-.39.02-.01.04-.01.06-.02.02-.01.05-.01.07-.02.58-.15.59-.15.72.42.14.6.29 1.2.43 1.81.07.3.01.39-.28.46-.77.19-1.57.4-2.37.62zM149.94 63.21c-.01-.1-.02-.19-.04-.29-.23-.8-.45-1.59-.68-2.39-.08-.28-.12-.3-.41-.22-.69.18-.64.24-.83-.46s-.23-.6.45-.79c.65-.18 1.3-.36 1.95-.55.27-.08.33-.05.42.22.07.21.13.42.2.63.08.26.05.31-.22.39-.11.04-.23.06-.35.1-.14.02-.23.15-.21.28 0 .03.01.05.02.08.38 1.24.75 2.47 1.12 3.71.06.19.16.24.35.17.01 0 .02-.01.02-.01.72-.23.69-.19.89.45.19.61.18.64-.5.83-.71.2-1.43.37-2.14.56-.26.07-.37-.02-.42-.23-.05-.19-.09-.38-.14-.57-.09-.36-.09-.37.31-.47l.39-.11c0-.04.01-.07.01-.11-1.41-.62-2.78-1.28-4.17-2 .01.12.02.19.03.25.19.82.39 1.64.57 2.46.05.2.15.24.34.19.16-.04.33-.07.5-.1.15-.06.32.02.37.17.01.02.01.04.02.06.06.26.11.52.14.79-.01.1-.08.18-.17.22-.9.22-1.8.42-2.71.59a.355.355 0 0 1-.29-.18c-.07-.26-.13-.52-.18-.78-.03-.13.04-.26.17-.29h.02l.12-.03c.58-.14.58-.14.46-.7-.25-1.15-.51-2.31-.76-3.46-.04-.2-.13-.26-.33-.22-.7.16-.57.09-.7-.48l-.09-.44c-.03-.15.01-.24.17-.27.79-.16 1.58-.34 2.36-.52.26-.06.34 0 .41.25.05.21.11.41.15.62.05.24 0 .33-.24.39-.16.04-.32.09-.48.13-.02.01-.03.04-.08.1 1.34.69 2.71 1.36 4.18 2.03zM108.5 58.92c.63.15 1.26.29 1.9.42.47.05.8.47.75.94-.01.05-.02.1-.03.14-.07.35-.13.7-.2 1.05 0 .15-.12.27-.27.26-.03 0-.07-.01-.1-.02s-.06-.01-.09-.02c-.54-.11-.55-.13-.46-.64.07-.39 0-.49-.4-.58-.91-.2-1.82-.41-2.73-.64-.29-.07-.4-.01-.47.28l-.21.81c-.07.29-.01.4.29.47 1.09.28 2.18.55 3.28.76.54.09.9.6.81 1.14v.01c-.17.71-.28 1.44-.42 2.16-.1.48-.57.78-1.04.69-.01 0-.02-.01-.04-.01-1.41-.29-2.8-.61-4.19-.99a.947.947 0 0 1-.68-1.15c0-.01 0-.01.01-.02.1-.42.25-.82.38-1.23.06-.18.17-.23.37-.18.74.2.73.16.55.86-.11.41-.03.52.4.64.9.24 1.8.46 2.71.67.47.11.63 0 .72-.44.06-.28.12-.56.17-.84.06-.33-.02-.43-.37-.51-1.11-.24-2.21-.52-3.32-.78a.952.952 0 0 1-.82-1.08c.01-.07.02-.13.05-.2.15-.57.3-1.13.46-1.7.06-.27.21-.5.43-.66.19-.13.42-.16.64-.1.64.18 1.28.34 1.92.49zM123.22 67.25c-.12-.24-.24-.48-.37-.71a.323.323 0 0 0-.21-.08c-.8-.06-1.59-.12-2.38-.21-.2-.04-.41.05-.51.23-.11.17-.23.34-.38.57.27.03.46.04.65.06.33.03.4.12.38.42-.02.2-.04.41-.05.62.02.15-.1.29-.25.31-.03 0-.06 0-.1-.01-.9-.09-1.79-.16-2.69-.26-.15-.01-.18-.23-.18-.3.01-.28.06-.57.09-.85.02-.17.14-.22.3-.19.24.02.51.04.51.04s.32-.37.44-.54c.8-1.13 1.58-2.18 2.34-3.33.05-.07.09-.14.16-.27-.19-.02-.34-.03-.49-.04-.23-.02-.31-.12-.3-.36s.04-.47.06-.71c.02-.2.12-.29.32-.27.81.08 1.62.13 2.43.18.18.01.25.09.24.27-.02.28-.03.55-.04.83.01.13-.08.24-.21.25h-.07c-.19-.01-.38-.02-.62-.04.02.09.05.18.08.27.66 1.37 1.37 2.73 2.11 4.08.06.12.19.2.33.19.68.02.68.02.67.68-.01.68-.01.68-.74.66s-1.44-.05-2.16-.09c-.33-.02-.41-.1-.39-.42.01-.21.04-.43.05-.64-.01-.15.11-.29.27-.29.02 0 .05 0 .07.01l.58.03.06-.09zm-1.82-1.8c.23.02.45.04.67.04s.26-.09.17-.27c-.19-.39-.39-.78-.58-1.17-.08-.16-.18-.18-.28-.03-.26.37-.51.74-.77 1.11-.11.15-.04.24.12.26.24.02.46.03.67.06zM137.53 64.7c-.1-.84-.19-1.69-.31-2.53-.08-.51.27-.99.79-1.06.01 0 .03 0 .04-.01 1.25-.13 2.49-.34 3.74-.56a.95.95 0 0 1 1.17.67c.01.04.02.07.02.11.34 1.64.67 3.29.98 4.94.12.52-.2 1.04-.72 1.16-.06.01-.12.02-.18.02-1.37.21-2.74.42-4.11.62a.969.969 0 0 1-1.11-.79v-.02c-.09-.84-.21-1.7-.31-2.55zm4.91-.7c-.11-.57-.21-1.15-.32-1.72-.07-.36-.21-.45-.57-.39-.93.16-1.85.3-2.78.42-.41.05-.52.19-.46.6l.36 2.67c.04.27.06.53.11.8s.21.41.44.39c1.04-.12 2.07-.26 3.1-.44.39-.07.5-.25.44-.61-.11-.58-.22-1.15-.32-1.72zM127.13 68.79c-.21 0-.39-.17-.39-.38v-.7c0-.21.17-.38.39-.38h.53v-4.01h-1.42v1.05c0 .22-.18.41-.4.41h-.49a.41.41 0 0 1-.4-.41v-2.09c0-.22.18-.41.4-.41h6.18c.22 0 .4.19.4.41v2.09c0 .22-.18.41-.4.41h-.49a.41.41 0 0 1-.4-.41v-1.05h-1.55v4l.04.01h.5c.21 0 .39.17.39.38v.7c0 .21-.17.38-.39.38h-2.5zM115.4 67.73c-.02 0-.05 0-.07-.01l-2.46-.48a.396.396 0 0 1-.31-.46l.13-.7c.03-.18.19-.32.38-.32.02 0 .05 0 .07.01l.52.1.75-4.05-1.39-.27-.2 1.06c-.03.2-.2.34-.4.35-.02 0-.05 0-.07-.01l-.48-.09a.418.418 0 0 1-.32-.49l.39-2.11c.03-.2.2-.34.4-.35.02 0 .05 0 .07.01l6.07 1.17c.22.05.37.27.32.49l-.39 2.11c-.03.2-.2.34-.4.35-.02 0-.05 0-.07-.01l-.48-.09a.418.418 0 0 1-.32-.49l.2-1.06-1.52-.29-.75 4.04.04.02.5.1c.21.05.35.25.31.46l-.13.7c-.04.18-.21.31-.39.31zM133.54 68.5a.386.386 0 0 1-.36-.35l-.05-.68c-.01-.17.09-.32.25-.38l.02-.01c.03-.01.06-.02.09-.02l.53-.04-.29-3.94-.53.04h-.03c-.2 0-.37-.15-.38-.35l-.05-.68a.38.38 0 0 1 .36-.4l2.55-.19h.01c.19.01.34.16.36.35l.05.68c.01.17-.09.32-.25.38l-.02.01c-.03.01-.06.02-.09.02l-.53.04.29 3.94.53-.04h.03c.2 0 .37.15.39.35l.05.68a.38.38 0 0 1-.36.4l-2.55.19h-.02z"/><path fill="#0060A3" d="M97.38 90c.77-2.21 1.58-4.81 2.31-7.14h.16c.81 2.27 1.58 4.93 2.39 7.14l.65 1.88h-6.15l.64-1.88zm-11.13 11.12h7.36l1.74-5.11h8.9l1.74 5.11h7.61l-9.34-22.27H95.6l-9.35 22.27zm34.88 0h7.24V83.31h8.17v-4.45H113v4.45h8.13v17.81zm20.06 0h6.47V93.5c-.13-2.59-.44-5.17-.93-7.71h.16l2.43 5.32 4.09 8.13h3.96l4.04-8.13 2.51-5.32h.2c-.52 2.54-.85 5.12-.97 7.71v7.62h6.59V78.86h-7.84l-4.61 9.62c-.57 1.28-1.05 2.69-1.66 4.03h-.2c-.57-1.34-1.05-2.75-1.66-4.03L149 78.86h-7.81v22.26z"/></svg>