<svg xmlns="http://www.w3.org/2000/svg" width="256" height="112" xml:space="preserve"><path fill="#015BA2" d="M132.97 37.17v9.15h-9.34v-1.81h7.38v-5.57h-7.38v-1.77h9.34M139.61 38.95l-1.21 1.53c-.73-.67-2.2-1.71-3.31-2.28l1.14-1.5c1.15.65 2.55 1.56 3.38 2.25m4.54.01 1.19 1.42c-1.84 2.87-5.47 5.53-8.94 6.65l-.96-1.78c3.43-.86 6.93-3.38 8.71-6.29zM155.45 40.02c-1.88.82-4.21 1.59-6.62 2.11v1.44c0 1.3.38 1.72 1.6 1.8.34.03.88.05 1.47.05 1.19 0 2.66-.1 3.73-.26v1.86c-1.11.1-2.46.16-3.66.16-.73 0-1.4-.03-1.89-.06-1.99-.13-3.14-1.18-3.14-2.89v-7.76h1.89v3.99c2.1-.51 4.28-1.3 5.69-2.02l.93 1.58m-.83-3.71c.52.47.83.82 1.21 1.39l-.75.61c-.39-.57-.7-.96-1.19-1.39l.73-.61zm1.43-.82c.5.44.8.82 1.21 1.37l-.75.62c-.38-.56-.69-.94-1.21-1.38l.75-.61zM157.74 44.16h10.67v1.85h-10.67v-1.85zm1.47-6.69h7.7v1.83h-7.7v-1.83zM174.12 36.46h2.39l4.14 10.57h-2.34l-.91-2.42h-4.28l-.92 2.42H170l4.12-10.57m1.16 2.12h-.03l-1.53 4.36h3.09l-1.53-4.36zM183.15 38.13h-3.02v-1.67h8.18v1.67h-3.03v8.9h-2.13v-8.9M189.9 36.46h3.38l2.52 8.02h.03l2.52-8.02h3.39v10.57h-2.04v-8.72h-.02l-2.85 8.72h-2.03l-2.84-8.72-.04.03v8.69h-2.02V36.46M123.63 61.34h9.26v3.99c2.28-3.06 4.77-4.72 8.61-4.72 6.72 0 9.89 3.95 9.89 10.95v15.3h-10.13V73.38c0-2.53-.68-4.77-3.55-4.77-3.11 0-3.95 1.99-3.95 5.25v13.01h-10.13V61.34M172.56 71.23c0-2.73 1.7-4.42 4.72-4.42 2.38 0 4.48 2.07 4.48 4.42h-9.2m19.33 5.17c.14-9.25-5.56-15.78-15.01-15.78-8.18 0-14.45 5.36-14.45 13.73 0 8.57 6.32 13.24 14.51 13.24 5.93 0 12.35-2.08 14.11-8.42h-9.69c-.74 1.52-2.2 2.24-3.8 2.24-2.68 0-5.01-2-5.01-5.01h19.34M220.24 86.87c-3.73 0-6.45.17-8.93 0-5.36-.37-5.97-3.64-5.97-9.01V67.19h-3.59v-5.85h3.75V53.4h9.99v7.94h4.86v5.85h-4.86v9.25c0 2.33.34 3.15 3.17 3.15h1.6v7.28M97.57 74.61c0-4.74 3.85-8.6 8.61-8.6 1.46 0 2.83.37 4.03 1 1.05-3.49 1.63-7.18 1.63-11 0-21.05-17.06-38.1-38.1-38.1-21.03 0-38.08 17.05-38.08 38.1 0 15.58 9.37 28.96 22.78 34.86L46.47 61.48l26.57-10.82 3.1 7.6-15.88 6.48 1.89 4.66 13.45-5.48 3.09 7.61L65.24 77l2.08 5.12 16.53-6.72 3.1 7.6-23.65 9.62c3.32.95 6.83 1.47 10.45 1.47 11.02 0 20.94-4.69 27.89-12.15-2.44-1.53-4.07-4.24-4.07-7.33"/></svg>