<svg xmlns="http://www.w3.org/2000/svg" width="190" height="85" xml:space="preserve"><path fill="#FFF" d="M24.55 64.09h-2.6v-2.35h-1.17v5.61h1.17v-2.51h2.6v2.51h1.17v-5.61h-1.18v2.35zM26.81 63h1.09v4.38h-1.09zm.58-1.76c-.32.05-.54.34-.5.66.05.32.34.54.66.5.29-.04.5-.29.5-.57a.654.654 0 0 0-.66-.59m3.94 1.68a2.261 2.261 0 0 0-2.43 2.43c-.09 1.11.73 2.08 1.83 2.17.09.01.17.01.26.01l1.01-.18v.25c0 .67-.42 1-1.26 1a3.46 3.46 0 0 1-1.26-.33l-.33.59c.55.27 1.15.41 1.76.42 1.34 0 2.18-.67 2.18-1.76v-4.18c-.53-.24-1.1-.35-1.67-.33m-.09.57H32v3.1l-.67.17c-.84 0-1.26-.59-1.26-1.59s.5-1.76 1.34-1.76m4.7-.58a2.35 2.35 0 0 0-2.51 2.17 2.35 2.35 0 0 0 2.17 2.51 2.35 2.35 0 0 0 2.51-2.17c0-.05.01-.11.01-.16.14-1.15-.68-2.19-1.82-2.33a1.12 1.12 0 0 0-.36-.02m1.08 2.26c0 .75-.17 1.59-1.09 1.59s-1.09-1-1.09-1.59.17-1.59 1.09-1.59 1.09 1 1.09 1.59m5.37-.76c.61-.12 1.06-.64 1.09-1.26 0-.92-.92-1.51-2.35-1.51a4.8 4.8 0 0 0-1.84.33v5.19c.61.24 1.27.35 1.93.33 1.59 0 2.43-.59 2.43-1.68-.07-.73-.62-1.31-1.34-1.42m-1.26-2.07c.78 0 1.17.31 1.17.92 0 .67-.42.92-1.51.92h-.42v-1.76h.75m-.75 2.51h.59c1.17 0 1.76.33 1.76 1.09s-.75 1-1.34 1h-.75l-.26-2.09zm6.2-2.01c-.57.01-1.14.13-1.67.33l.25.59c.4-.16.83-.25 1.26-.25.75 0 1 .25 1 .75v.17c-1.42.08-2.85.42-2.85 1.68s.75 1.34 2.09 1.34c.63.02 1.26-.1 1.84-.33v-2.76c0-1-.67-1.51-1.84-1.51m.84 2.09v1.76l-.75.17c-.75 0-1.09-.25-1.09-.75s.67-1 1.84-1.09m3.86-2.19c-.63 0-1.25.12-1.84.33v4.19h1.09v-3.77h.75c.33 0 1.01.08 1.01.75v3.1h1.09v-3.27c-.01-.91-.76-1.33-2.1-1.33m5.11 2.01L58.56 63h-1.17l-1.76 1.84v-3.18h-1.09v5.7h1.09V65.1l1.84 2.26h1.26l-2.18-2.44z"/><path fill="#9BC819" d="M44.82 43.56c0 .32-.26.59-.59.59h-9.89c-.32 0-.59-.26-.59-.59v-9.89c0-.32.26-.59.59-.59h9.89c.32 0 .59.26.59.59v9.89z"/><path fill="#FFF" d="M33.09 44.15h-3.51c-3.6 0-5.95 1.59-6.62 4.27-.11.58-.16 1.17-.17 1.76v1.42c-.01.67.05 1.35.17 2.01.72 2.92 3.66 4.71 6.58 3.99a5.448 5.448 0 0 0 3.97-3.91c.13-.58.18-1.17.17-1.76v-7.12c0-.32-.26-.59-.59-.59M45.4 33.09H49c3.6 0 5.95-1.59 6.62-4.27.11-.58.16-1.17.17-1.76v-1.42c.01-.67-.05-1.35-.17-2.01-.72-2.92-3.66-4.71-6.58-3.99a5.448 5.448 0 0 0-3.97 3.91 7.23 7.23 0 0 0-.17 1.67v7.2c0 .32.26.59.59.59m-.67 19.43c.05 3.03 2.56 5.44 5.59 5.39 3.03-.05 5.44-2.56 5.39-5.59V41.72a.248.248 0 0 0-.15-.32c-.03-.01-.07-.02-.1-.01-.08 0-.17 0-.42.25a7.99 7.99 0 0 1-6.37 2.6H45.4c-.32 0-.59.26-.59.59v7.71M33.68 24.8c-.05-3.03-2.56-5.44-5.59-5.39-3.03.05-5.44 2.56-5.39 5.59v10.52c-.05.13.02.27.15.32.03.01.07.02.1.01.08 0 .17 0 .33-.25a7.99 7.99 0 0 1 6.37-2.6H33c.32 0 .59-.26.59-.59V24.8m37.79 31.83c-.05.23.09.45.32.5.06.01.12.01.18 0h2.52c1.34 0 2.09-.5 2.09-2.01V36.95c0-1.17-.5-1.76-1.93-1.76h-5.11a.587.587 0 0 0-.67.67v8.88c0 5.95-.25 8.71-1.09 11.9a.501.501 0 0 0 .5.67h1.09c.33 0 .5-.17.67-.5 1.01-3.03 1.51-6.19 1.51-9.38h2.43v7.46c0 .42-.17.5-.59.5h-1.43c-.25 0-.46.17-.5.42l.01.82zm.08-14.49h2.43v3.6h-2.43v-3.6zm2.43-4.86v3.18h-2.43v-3.6h2.01c.23 0 .42.19.42.42m4.61-2.1c-.32 0-.59.26-.59.59v17.34c0 2.85 1.59 4.1 3.94 4.19h5.11c2.35-.08 3.6-1.26 3.52-3.27s-.08-1.93-.17-2.93c0-.28-.22-.5-.5-.5h-1c-.28 0-.5.22-.5.5.02.87-.01 1.74-.08 2.6a1.39 1.39 0 0 1-1.42 1.26h-4.28c-1.42 0-1.93-.59-1.93-1.93v-7.04h8.71a.587.587 0 0 0 .67-.67V37.2c0-1.34-.42-2.01-2.26-2.01H78.5zm2.09 1.76h2.18v7.29h-2.18v-7.29zm4.52 7.29v-7.29h1.6c.42 0 .67.17.67.59v6.7h-2.27zm16.76 7.29c.48-.01.94-.16 1.34-.42.61-.44 1.2-.91 1.76-1.42-.01.18.05.36.17.5.67.8 1.4 1.56 2.18 2.26a24.722 24.722 0 0 1-6.28 3.85.518.518 0 1 0 .23 1.01h1.36c.52-.01 1.03-.12 1.51-.33 1.73-.75 3.36-1.71 4.86-2.85 1.13 1.01 2.33 1.94 3.6 2.76.44.25.92.39 1.42.42h2.26c.67 0 .92-.67.34-1-2.05-1.1-4.01-2.36-5.86-3.77a22.46 22.46 0 0 0 4.1-4.86c.32-.46.21-1.1-.25-1.42-.22-.15-.49-.21-.75-.17h-8.54c-.43-.05-.84.15-1.09.5-.9 1.46-1.97 2.81-3.18 4.02-.42.42-.25.84.33.84l.49.08zm3.85-2.34h-.25l1.34-1.51h4.61c-.65 1.2-1.47 2.3-2.43 3.27l-1.34-1.34a1.43 1.43 0 0 0-1.09-.42h-.84zm9.8-4.36c1.17 0 1.51-.75.84-1.67l-1.68-2.09c-.29-.4-.76-.62-1.26-.59h-1.01c-.42 0-.59.25-.42.67l1.17 2.09h-7.29l.67-.33c2.35-1.42 5.19-3.27 7.04-4.52a.672.672 0 0 0-.34-1.26h-1.68c-.45.03-.88.17-1.26.42l-3.35 2.35-1.42-.84 4.86-3.35c.28-.17.37-.52.21-.8a.591.591 0 0 0-.54-.29h-1.84c-.36.01-.71.12-1 .33l-4.69 3.35a.755.755 0 0 0-.08 1.26l2.51 1.59-3.18 2.09c-.92.59-.67 1.59.33 1.59h13.41zm-20.77-2.43c.39.01.77-.11 1.09-.33 2.12-1.82 4.05-3.84 5.78-6.03.42-.5.17-1.09-.42-1.09h-1.59c-.41-.08-.84.08-1.09.42l-1.68 2.35-1.17 1.51c-.7.83-1.46 1.62-2.26 2.35a.504.504 0 0 0 .25.84l1.09-.02z"/><path fill="#FFF" d="M98.69 57.39c.32 0 .59-.26.59-.59V44.23l2.6-3.1a.602.602 0 1 0-.44-1.12l-.06.03h-1.34c-.41-.08-.84.08-1.09.42-1.68 2.01-2.93 4.52-5.53 6.79-.33.33-.25.92.25.92h1c.33-.02.65-.13.92-.33l1.26-1.09c0 .42-.08.92-.08 1.26v8.88c0 .32.26.59.59.59l1.33-.09zm22.95-10.73a.496.496 0 0 0-.5.67c.08 1.09.25 2.51.34 4.19s.25.67.75.67h.75c.32 0 .59-.26.59-.58 0-.03 0-.06-.01-.09-.25-1.76-.42-2.85-.67-4.36a.59.59 0 0 0-.67-.42l-.58-.08zm6.87 3.77c.27.01.51-.16.59-.42.17-.75.34-1.76.5-2.76s-.17-.75-.67-.75h-.59c-.42 0-.67.17-.67.59s-.08 1.93-.17 2.85.17.59.59.59l.42-.1z"/><path fill="#FFF" d="M119.55 41.47c-.05.23.09.45.32.5.12.03.25 0 .35-.08l1.68-.84c0 .33.25.42.67.42h1.76v2.09h-2.93a.666.666 0 0 0-.75.75v.25a.665.665 0 0 0 .75.75h2.93v8.21l-3.52 1.17c-.41.04-.71.41-.67.83v1.01c0 .59.42.84 1.01.67 2.85-.9 5.57-2.14 8.13-3.69.24-.14.4-.39.42-.67v-.92c0-.42-.34-.59-.75-.42l-2.26 1.01v-7.29h2.09a.665.665 0 0 0 .75-.75v-.25a.666.666 0 0 0-.75-.75h-2.09v-2.01h1.68c.42 0 .67-.17.67-.75v-.17a.876.876 0 0 0-.08-.42l.25.17c.24.14.55.05.69-.19.05-.09.08-.2.06-.31v-.92a.778.778 0 0 0-.42-.59 8.698 8.698 0 0 1-2.68-2.85.992.992 0 0 0-.92-.5h-.75c-.4 0-.76.23-.92.59-.99 1.86-2.43 3.44-4.19 4.61-.34.25-.5.42-.5.75v.59zm8.88-1.59h-4.86c.97-.73 1.82-1.61 2.51-2.6a9.865 9.865 0 0 0 2.43 2.68h-.16m8.12 12.48c0-.42-.42-.5-.75-.25-.8.68-1.67 1.28-2.6 1.76V45.4h.92c.7 2.08 1.57 4.09 2.6 6.03.91 1.78 2.04 3.44 3.35 4.94.43.4 1 .61 1.59.59H143c.59 0 .67-.59.34-.92a25.69 25.69 0 0 1-4.69-5.7h.34c.25 0 .49-.09.67-.25.92-.75 1.76-1.6 2.51-2.51.34-.42.25-.92-.34-.92h-1.17a.987.987 0 0 0-.92.42c-.5.79-1.06 1.55-1.68 2.26-.69-1.31-1.3-2.65-1.84-4.02h4.69c.67 0 .92-.25.92-.92v-7.37c0-1.17-.5-1.84-1.93-1.84h-8.71c-.37 0-.67.3-.67.67v20.53a.751.751 0 0 0 1.09.67 11.15 11.15 0 0 0 4.61-3.1c.21-.2.33-.47.34-.75l-.09-.77zm2.34-15.5c.25 0 .34.08.34.33v2.18h-6.03v-2.51h5.69zm-5.7 4.19h6.03v2.43h-6.03v-2.43zm13.58 1.26c.39.01.77-.11 1.09-.33 2.18-1.67 3.85-3.94 5.78-6.03.29-.14.41-.5.26-.79a.58.58 0 0 0-.68-.3h-1.59c-.41-.08-.84.08-1.09.42l-1.68 2.35-1.17 1.51c-.7.83-1.46 1.62-2.26 2.35a.504.504 0 0 0 .25.84l1.09-.02zm4.1 15c.32 0 .59-.26.59-.59V44.07l2.43-2.93c.29-.15.41-.52.25-.81a.603.603 0 0 0-.75-.28h-1.34c-.41-.08-.84.08-1.09.42-1.68 2.01-2.93 4.52-5.53 6.79-.34.33-.25.92.25.92h1.01c.33-.02.65-.14.92-.33l1.34-1.17c-.07.47-.1.95-.08 1.42v8.8c0 .32.26.59.59.59l1.41-.1zm7.12-1.01c0 .42.17.59.67.59h4.1c1.76 0 2.51-.75 2.51-2.51V44.32h3.18a.665.665 0 0 0 .75-.75v-.59a.666.666 0 0 0-.75-.75h-13.32a.666.666 0 0 0-.75.75v.59a.665.665 0 0 0 .75.75h7.2v10.14c0 .5-.25.67-.67.67h-3.1c-.32 0-.59.26-.59.59l.02.66zm-1.67-18.6h11.14a.666.666 0 0 0 .75-.75v-.59a.666.666 0 0 0-.75-.75h-11.14a.666.666 0 0 0-.75.75v.59a.666.666 0 0 0 .75.75M70.2 25.05c.69.28 1.43.45 2.18.5a.346.346 0 0 0 .17-.67.43.43 0 0 0-.16 0c-.79 0-1.57-.2-2.26-.58h-.25c-.19 0-.33.15-.33.33 0 .25.33.42.59.5m1.82.84c-1.11 0-2.2.26-3.18.75-.34.17-.5.25-.5.42-.05.18.06.36.24.41.03.01.06.01.09.01l.42-.17c.82-.46 1.74-.72 2.68-.75.67 0 1.51.25 1.51 1.26s-1.76 2.17-2.93 2.17-.42 0-.42.33c-.01.18.14.34.32.35.03 0 .06 0 .09-.01.75 0 3.69-.75 3.69-2.93 0-1.02-.82-1.84-1.84-1.85-.05 0-.11.01-.17.01m17.18-1.68c-.19 0-.33.15-.33.33 0 .17.08.17.42.42h.08l.5.59.33.59c.04.2.22.34.42.33h.25a.33.33 0 0 0 .08-.25c-.09-.37-.26-.71-.5-1-.25-.33-.84-1-1.17-1m15.83 2.01h-.92v-.59h2.76c.17 0 .42 0 .42-.33s-.33-.33-.42-.33h-2.85v-.67c0-.19-.15-.33-.33-.33-.33 0-.33.25-.42 1.09h-1.09c-.25 0-.5 0-.5.33s.17.33.42.33h1.42v.75c-1.05.38-1.8 1.32-1.93 2.43-.05.6.4 1.12 1 1.17h.18c.43-.04.85-.21 1.17-.5.08.42.17.59.42.59.19 0 .33-.15.33-.33-.04-.2-.09-.4-.17-.59.67-.63 1.19-1.4 1.51-2.26.69.12 1.18.73 1.17 1.42a1.5 1.5 0 0 1-1.57 1.43h-.02c-1.17.08-.42 0-.42.33-.01.18.14.34.32.35.03 0 .06 0 .09-.01 1.22.05 2.26-.88 2.35-2.09 0-.84-.59-2.18-2.76-2.18m-1.41 2.75c-.25.24-.58.38-.92.42a.448.448 0 0 1-.5-.38.244.244 0 0 1 0-.12c.11-.74.58-1.37 1.26-1.67 0 .59.06 1.18.16 1.75zm.58-.5c-.06-.5-.09-1-.08-1.51h1.17c-.23.59-.57 1.13-1 1.59m8.88-2.18-.84.17.75-.5 1.09-.75h.17c.34-.17.42-.33.42-.5a.342.342 0 0 0-.32-.35c-.03 0-.06 0-.09.01h-.67l-2.68.17a.346.346 0 0 0-.17.67c.05.01.11.01.16 0l2.26-.17-3.02 2.26c-.42.33-.5.33-.5.59-.05.18.06.36.24.41.03.01.06.01.09.01.17 0 .25 0 .5-.33a3.9 3.9 0 0 1 2.68-1c.75-.12 1.46.39 1.58 1.15.1.6-.21 1.18-.75 1.45a1.84 1.84 0 0 0-1.84-1.51c-.7-.09-1.33.41-1.42 1.11 0 .02 0 .04-.01.07 0 .67.84 1.34 1.93 1.34s2.76-1.01 2.76-2.26-.5-1.93-2.35-1.93m-.31 3.5c-.5 0-1.34-.25-1.34-.67s.34-.5.75-.5c.6-.05 1.12.4 1.17 1H113m-33.25-3.44-.84.17.75-.5 1.09-.75h.17c.33-.17.42-.33.42-.5a.342.342 0 0 0-.32-.35c-.03 0-.06 0-.09.01h-.59l-2.68.17a.346.346 0 0 0-.17.67c.05.01.11.01.16 0l2.26-.17-3.02 2.26c-.42.33-.5.33-.5.59-.05.18.06.36.24.41.03.01.06.01.09.01.17 0 .25 0 .5-.33a3.9 3.9 0 0 1 2.68-1 1.393 1.393 0 0 1 .93 2.6 1.84 1.84 0 0 0-1.84-1.51c-.7-.09-1.33.41-1.42 1.11 0 .02 0 .04-.01.07 0 .67.75 1.34 1.93 1.34a2.694 2.694 0 0 0 2.6-2.35c.01-1.28-.49-1.95-2.34-1.95m-.33 3.52c-.5 0-1.26-.25-1.26-.67s.33-.5.75-.5c.6-.05 1.12.4 1.17 1h-.58m44.99.17a6.06 6.06 0 0 1-2.51-2.43h2.01c.17 0 .5 0 .5-.33s-.34-.33-.5-.33h-2.51v-1.1h2.26c.17 0 .5 0 .5-.33s-.34-.33-.5-.33h-2.26v-.67c0-.17 0-.59-.34-.59s-.34.33-.34.59v.67h-2.18c-.17 0-.5 0-.5.33s.34.33.5.33h2.18v1h-2.51c-.17 0-.5 0-.5.33s.34.33.5.33h2.01c-.55.93-1.33 1.71-2.26 2.26-.34.17-.42.25-.42.42 0 .19.15.33.34.33.17 0 1.51-.5 2.93-2.6v2.51c0 .25 0 .59.34.59s.34-.33.34-.59v-2.6a5.457 5.457 0 0 0 2.93 2.76c.19.01.35-.12.36-.31a.347.347 0 0 0-.28-.36m8.37-.05h-.08a5.717 5.717 0 0 1-2.01-1.93h2.01c.17 0 .5 0 .5-.33s-.34-.33-.5-.33h-1.42l.42-.5c.2-.28.34-.59.42-.92 0-.19-.16-.34-.35-.34-.15 0-.28.1-.32.25-.16.35-.36.69-.59 1-.13.1-.19.26-.17.42l.17.17h-.84v-1.92h2.18c.17 0 .5 0 .5-.33s-.34-.33-.5-.33h-2.18v-.25c0-.17 0-.5-.34-.5s-.34.33-.34.5v.25h-2.18c-.17 0-.5 0-.5.33s.34.33.5.33h2.26v1.84h-.84c.11-.04.17-.14.17-.25-.1-.39-.27-.76-.5-1.09-.25-.42-.34-.5-.5-.5-.16 0-.3.1-.34.25-.01.12.02.23.08.33l.5.84.25.33h-1.34c-.17 0-.5 0-.5.34 0 .33.34.33.5.33h2.09a4.97 4.97 0 0 1-2.18 1.93c-.42.17-.5.25-.5.42 0 .19.15.33.34.33.39-.1.76-.27 1.09-.5.76-.42 1.39-1.02 1.84-1.76v2.18c0 .17 0 .5.34.5s.34-.33.34-.5v-2.26a4.963 4.963 0 0 0 2.85 2.43h.25c.07-.06.11-.16.08-.25 0-.17-.08-.25-.5-.42m5.87-5.2h-.34a3.268 3.268 0 0 0-3.35 3.02c-.07.52.02 1.04.25 1.51.2.38.58.63 1.01.67.84.08 1.34-.84 1.51-1.09.44-1.1.72-2.26.84-3.43.61.03 1.19.3 1.59.75.8 1 .65 2.46-.35 3.27-.35.28-.78.46-1.24.5-.34 0-.5.08-.59.33-.05.18.06.36.24.41.03.01.06.01.09.01h.08a3.021 3.021 0 0 0 2.85-2.76 2.76 2.76 0 0 0-2.41-3.08c-.09-.01-.18-.02-.27-.02m-1.25 3.18c-.17.42-.42 1.42-1.09 1.34s-.75-.5-.67-1.42a2.595 2.595 0 0 1 2.26-2.43c-.07.85-.24 1.69-.5 2.51m25.38-2.09h.17l2.43-.17c.18-.05.29-.24.24-.42a.33.33 0 0 0-.32-.25h-3.02a.334.334 0 0 0-.41.24c-.01.03-.01.06-.01.09v.17c.08.25.25.25.92.25m2.77 3.35h-1.51c-1.09 0-1.59-.17-1.59-.59.01-.12.04-.23.08-.33v-.25c0-.19-.15-.34-.33-.34-.42 0-.5.84-.5.92.48.79 1.34 1.27 2.26 1.26.54.01 1.07-.04 1.59-.17.18-.05.29-.24.24-.42a.33.33 0 0 0-.32-.25m-4.53-.41a.248.248 0 0 0-.32.15c-.01.03-.02.07-.01.1v.25c-.06-.42-.09-.84-.08-1.26 0-.76.08-1.52.25-2.26v-.17c.07-.22.13-.44.17-.67 0-.19-.15-.33-.34-.33-.17 0-.25.08-.34.33-.27 1.04-.41 2.11-.42 3.18-.01.86.13 1.71.42 2.51.04.2.22.34.42.33.19 0 .34-.15.34-.33v-1.5c.01-.14-.1-.26-.24-.27-.03 0-.07 0-.1.01m8.13-.24c-.65 0-1.17.53-1.17 1.17s.53 1.17 1.17 1.17c.67-.02 1.2-.58 1.18-1.25-.02-.64-.54-1.16-1.18-1.18m0 1.85a.67.67 0 1 1 .67-.67c0 .37-.3.67-.67.67m-22.12-4.44c0-.19-.15-.33-.34-.33h-1.01c.08-.33.13-.67.17-1a.336.336 0 0 0-.28-.4.343.343 0 0 0-.39.24v1.26h-1.26c-.19.05-.3.23-.25.42.05.19.23.3.42.25h1.01a24.98 24.98 0 0 1-1.01 3.6l-.17.5c0 .19.15.33.34.33.25 0 .34-.25.5-.67.42-1.26.75-2.55 1.01-3.85 1.26-.17 1.42-.17 1.42-.5m2.27 4.09h-1.26c-.48.01-.95-.14-1.34-.42-.17-.17-.17-.33-.17-.75a.33.33 0 0 0-.08-.25h-.25c-.17 0-.34.08-.42.5s.34 1.59 2.26 1.67h.17l1.26-.17c.17-.11.22-.33.11-.5a.367.367 0 0 0-.28-.17m-2.59-2.85a.38.38 0 0 0 .33.5h.17c.44-.12.89-.18 1.34-.17h1.01a.33.33 0 0 0 .08-.25c0-.17-.17-.25-.42-.33h-1.51c-.59.08-.84.17-.92.33m-50.77 2.1c-.17 0-.25.08-.33.42s-.25.59-.5.59h-.08c-.42 0-1.09-.67-1.34-2.26-.07-.56-.07-1.12 0-1.67v-.59a.33.33 0 0 0-.08-.25h-.33c-.17 0-.25.17-.33.42-.13.8-.13 1.62 0 2.43.25 2.01 1.26 2.93 2.01 2.93h.17c.37-.09.67-.33.84-.67.15-.22.24-.48.25-.75a.34.34 0 0 0-.4-.26c-.01 0-.01 0-.02.01m2.23-4.2h-.25l-.25.17a.33.33 0 0 0 .02.46c.02.02.04.03.06.04.71.66 1.15 1.55 1.26 2.51-.01.18.14.34.32.35.03 0 .06 0 .09-.01l.25-.17c.05-.07.08-.16.08-.25a4.677 4.677 0 0 0-1.59-2.93m57.4.25v-.67c0-.08.08-.42-.25-.5s-.34.08-.42.33v.84h-.17c-.47.05-.92.2-1.34.42l-.17-.59-.17-.5a.39.39 0 0 0-.25-.25.328.328 0 0 0-.41.23c0 .01 0 .01-.01.02.09.49.23.97.42 1.42h-.08c-.64.55-1.04 1.33-1.09 2.18-.05.65.44 1.21 1.08 1.26h.01c.56-.04 1.08-.32 1.42-.75l.42.33c.18.05.36-.05.41-.23 0-.01 0-.01.01-.02 0-.17 0-.25-.34-.67l.17-.33c.33-.64.58-1.31.75-2.01.99 0 1.8.77 1.84 1.76 0 .67-.5 1.84-2.26 1.93-.16-.02-.31.1-.34.26V30c0 .33.34.33.5.33 1.5.05 2.76-1.11 2.85-2.6 0-1.34-1.09-2.43-2.43-2.43m-2.84 3.69c-.34 0-.42-.25-.42-.59.03-.61.31-1.18.75-1.59l.67 1.42c-.21.37-.58.61-1.01.67m1.52-1.59v.17l-.59-1.17c.36-.22.76-.36 1.17-.42-.12.49-.29.97-.5 1.42m-66.43-.5h-.92v-.84h1.26c.17 0 .42 0 .42-.33s-.33-.33-.5-.33h-1.17v-.76c.02-.11.02-.22 0-.33a.417.417 0 0 0-.59-.08c-.03.02-.06.05-.08.08a.8.8 0 0 0-.08.33v.75h-1.34c-.17 0-.5 0-.5.33s.33.33.5.33h1.42v1.18a2.675 2.675 0 0 0-2.01 2.09c0 .83.67 1.51 1.51 1.51h.09c.55.05 1.04-.35 1.1-.9.01-.09.01-.18-.01-.27v-2.01h.92c.92 0 1.93.33 1.93 1.34-.03.53-.4.98-.92 1.09h-1.01c-.08 0-.42 0-.42.33s.25.33.5.33c2.01 0 2.51-1.17 2.51-1.93a2.633 2.633 0 0 0-2.61-1.91m-2.01 3.26c-.48 0-.88-.36-.92-.84 0-.59.59-1.09 1.34-1.51v1.67c0 .43 0 .68-.42.68"/></svg>