<svg xmlns="http://www.w3.org/2000/svg" width="178" height="78" xml:space="preserve"><path fill="#0083B0" d="M14.49 63.78h-2.75V61.3H10.5v5.94h1.24v-2.66h2.75v2.66h1.24V61.3h-1.24v2.48zm2.39-1.16h1.15v4.64h-1.15v-4.64zm.62-1.86c-.34.05-.57.36-.52.7s.36.57.7.52c.3-.04.53-.3.53-.61a.72.72 0 0 0-.71-.61m4.17 1.78a2.397 2.397 0 0 0-2.57 2.57c-.1 1.17.77 2.2 1.94 2.3.09.01.18.01.27.01l1.06-.18v.27c0 .71-.44 1.06-1.33 1.06-.46-.03-.91-.15-1.33-.35l-.35.62c.58.28 1.22.43 1.86.44 1.42 0 2.3-.71 2.3-1.86v-4.44c-.56-.25-1.16-.37-1.77-.35m-.08.61h.71v3.28l-.71.18c-.89 0-1.33-.62-1.33-1.68s.53-1.86 1.42-1.86m4.96-.62c-1.37-.1-2.56.93-2.65 2.3-.1 1.37.93 2.56 2.3 2.65 1.37.1 2.56-.93 2.65-2.3 0-.06.01-.11.01-.17.15-1.21-.72-2.32-1.93-2.47-.13-.01-.25-.02-.38-.01m1.15 2.39c0 .8-.18 1.68-1.15 1.68s-1.15-1.06-1.15-1.68c0-.63.18-1.68 1.15-1.68.97-.01 1.15 1.06 1.15 1.68m5.68-.8c.65-.12 1.12-.67 1.15-1.33 0-.98-.98-1.6-2.48-1.6a5.18 5.18 0 0 0-1.95.35v5.5c.65.25 1.34.37 2.04.35 1.68 0 2.57-.62 2.57-1.77-.07-.77-.66-1.39-1.42-1.51m-1.33-2.21c.83 0 1.24.33 1.24.98 0 .71-.44.98-1.6.98h-.44v-1.86h.8m-.8 2.65h.62c1.24 0 1.86.35 1.86 1.15 0 .8-.8 1.06-1.42 1.06h-.8l-.26-2.21zm6.56-2.13c-.61.01-1.21.13-1.77.35l.27.62c.42-.17.87-.26 1.33-.27.8 0 1.06.27 1.06.8v.18c-1.51.09-3.01.44-3.01 1.77s.8 1.42 2.22 1.42c.67.02 1.33-.1 1.95-.35v-2.92c0-1.06-.71-1.6-1.95-1.6m.87 2.22v1.86l-.8.18c-.8 0-1.15-.27-1.15-.8s.71-1.06 1.95-1.15m4.09-2.31c-.67 0-1.33.12-1.95.35v4.43h1.15v-3.99h.8c.35 0 1.06.09 1.06.8v3.28h1.15v-3.46c0-.96-.8-1.41-2.21-1.41m5.4 2.13 2.13-2.04h-1.24l-1.86 1.95V61.2h-1.15v6.03h1.15v-2.4l1.95 2.4h1.33l-2.31-2.57z"/><path fill="#9BC819" d="M35.94 42.06c0 .34-.28.62-.62.62H24.86c-.34 0-.62-.28-.62-.62V31.6c0-.34.28-.62.62-.62h10.46c.34 0 .62.28.62.62v10.46z"/><path fill="#0083B0" d="M23.53 42.68h-3.72c-3.81 0-6.29 1.68-7 4.52-.11.61-.17 1.24-.18 1.86v1.51c-.01.71.05 1.43.18 2.13a5.775 5.775 0 0 0 6.97 4.23c2.05-.5 3.67-2.09 4.2-4.14.13-.61.19-1.24.18-1.86v-7.54c0-.34-.28-.62-.62-.62m13.02-11.79h3.81c3.81 0 6.29-1.68 7-4.52.11-.61.17-1.24.18-1.86v-1.51c.01-.71-.05-1.43-.18-2.13a5.775 5.775 0 0 0-6.97-4.23c-2.05.5-3.67 2.09-4.2 4.14-.13.58-.19 1.18-.18 1.77v7.62c0 .34.28.62.62.62m-.7 20.57c.05 3.2 2.7 5.75 5.9 5.7h.01c3.2-.05 5.75-2.7 5.7-5.9V40.11a.267.267 0 0 0-.15-.34h-.01a.355.355 0 0 0-.1-.02c-.09 0-.18 0-.44.27a8.42 8.42 0 0 1-6.74 2.75h-3.55c-.34 0-.62.28-.62.62v8.16M24.15 22.2c-.05-3.2-2.7-5.75-5.9-5.7h-.01c-3.2.05-5.75 2.7-5.7 5.9v11.15c-.05.14.02.29.16.34.03.01.07.02.1.02.09 0 .18 0 .35-.27a8.42 8.42 0 0 1 6.74-2.75h3.55c.34 0 .62-.28.62-.62v-8.06"/><path fill="#566973" d="M89.98 52.51c.34 0 .62-.28.62-.62v-13.3l2.75-3.28c.33-.13.49-.5.36-.82a.624.624 0 0 0-.81-.36h-.01l-.06.03h-1.42c-.44-.09-.89.08-1.15.44-1.77 2.13-3.1 4.79-5.85 7.18-.35.35-.27.98.27.98h1.06c.35-.02.69-.14.98-.35l1.32-1.15c0 .44-.09.98-.09 1.33v9.4c0 .34.28.62.62.62l1.41-.1zm24.3-11.34a.526.526 0 0 0-.53.71c.09 1.15.27 2.66.35 4.43.09 1.77.27.71.8.71h.8c.34 0 .62-.27.63-.61 0-.03 0-.06-.01-.1-.27-1.86-.44-3.01-.71-4.61a.616.616 0 0 0-.71-.44l-.62-.09zm7.26 3.99c.28.01.54-.17.62-.44.18-.8.35-1.86.53-2.93.17-1.06-.18-.8-.71-.8h-.62c-.44 0-.71.18-.71.62s-.09 2.04-.18 3.01.18.62.62.62l.45-.08z"/><path fill="#566973" d="M61.08 51.72c-.05.24.1.48.34.53.06.01.13.01.19 0h2.67c1.42 0 2.22-.53 2.22-2.13V30.88c0-1.24-.53-1.86-2.04-1.86h-5.41a.622.622 0 0 0-.71.71v9.4c0 6.29-.27 9.22-1.15 12.59-.1.27.04.58.32.68.07.02.14.04.21.03h1.15c.35 0 .53-.18.71-.53 1.06-3.2 1.6-6.56 1.6-9.93h2.57v7.89c0 .44-.18.53-.62.53h-1.51c-.26 0-.49.19-.53.44l-.01.89zm.09-15.34h2.57v3.81h-2.57v-3.81zm2.57-5.14v3.37h-2.57V30.8h2.13c.25 0 .44.2.44.44m4.88-2.22c-.34 0-.62.28-.62.62v18.35c0 3.01 1.68 4.34 4.17 4.43h5.41c2.48-.09 3.81-1.33 3.72-3.46-.09-2.13-.09-2.04-.18-3.1 0-.29-.24-.53-.53-.53h-1.06c-.29 0-.53.24-.53.53.02.92-.01 1.84-.09 2.75a1.47 1.47 0 0 1-1.51 1.33h-4.53c-1.51 0-2.04-.62-2.04-2.04v-7.45h9.22a.622.622 0 0 0 .71-.71v-8.6c0-1.42-.44-2.13-2.39-2.13l-9.75.01zm2.22 1.86h2.3v7.71h-2.3v-7.71zm4.78 7.71v-7.71h1.69c.44 0 .71.18.71.62v7.09h-2.4zm17.73 7.72c.5-.01.99-.17 1.42-.44.65-.46 1.27-.97 1.86-1.51-.02.19.05.38.18.53.71.85 1.48 1.65 2.3 2.39-2 1.68-4.24 3.06-6.65 4.08-.29.07-.48.36-.41.66.07.29.36.48.66.41h1.44c.55-.01 1.09-.13 1.6-.35 1.83-.8 3.55-1.81 5.14-3.01 1.19 1.07 2.46 2.05 3.81 2.93.46.26.98.41 1.51.44h2.39c.71 0 .98-.71.35-1.06-2.17-1.16-4.25-2.5-6.21-3.99 1.68-1.5 3.14-3.23 4.34-5.14.34-.49.22-1.16-.26-1.5-.23-.16-.52-.23-.8-.18h-9.04c-.45-.05-.89.16-1.15.53-.95 1.54-2.08 2.97-3.37 4.26-.44.44-.27.89.35.89l.54.06zm4.08-2.48h-.27l1.42-1.6h4.88c-.69 1.27-1.56 2.43-2.57 3.46l-1.42-1.42c-.3-.31-.72-.47-1.15-.44h-.89zm10.37-4.61c1.24 0 1.6-.8.89-1.77l-1.77-2.22c-.31-.42-.81-.66-1.33-.62h-1.06c-.44 0-.62.27-.44.71l1.24 2.22h-7.71l.71-.35c2.48-1.51 5.5-3.46 7.45-4.79a.708.708 0 0 0-.35-1.33h-1.77c-.47.03-.93.18-1.33.44l-3.55 2.48-1.51-.89 5.14-3.55c.29-.17.39-.55.22-.85a.608.608 0 0 0-.57-.3h-1.95c-.38.01-.75.13-1.06.35l-4.96 3.55a.803.803 0 0 0-.09 1.33l2.66 1.68-3.37 2.22c-.98.62-.71 1.68.35 1.68l14.16.01zm-21.98-2.57c.41.01.82-.11 1.15-.35 2.24-1.93 4.29-4.06 6.12-6.38.44-.53.18-1.15-.44-1.15h-1.68c-.44-.09-.89.08-1.15.44l-1.77 2.48-1.24 1.6c-.74.88-1.54 1.71-2.39 2.48-.2.21-.2.55.02.75.07.07.16.11.25.14l1.13-.01zm26.24-.98c-.05.24.1.48.34.53.13.03.27 0 .37-.09l1.77-.89c0 .35.27.44.71.44h1.86v2.22h-3.1a.711.711 0 0 0-.8.8v.27a.702.702 0 0 0 .8.8h3.1v8.69l-3.72 1.24c-.44.05-.76.44-.71.88v1.07c0 .62.44.89 1.06.71 3.01-.95 5.9-2.26 8.6-3.9.26-.15.42-.41.44-.71v-.98c0-.44-.35-.62-.8-.44l-2.39 1.06v-7.71h2.22a.702.702 0 0 0 .8-.8v-.26a.711.711 0 0 0-.8-.8h-2.22v-2.13h1.77c.44 0 .71-.18.71-.8v-.18c.01-.15-.02-.3-.09-.44l.27.18c.26.15.59.06.73-.2.06-.1.08-.21.07-.33v-.98c-.03-.27-.2-.5-.44-.62a9.39 9.39 0 0 1-2.84-3.01c-.2-.35-.58-.55-.97-.53h-.8c-.42 0-.8.24-.98.62a13.484 13.484 0 0 1-4.43 4.88c-.35.27-.53.44-.53.8v.61zm9.4-1.68h-5.14c1.03-.77 1.92-1.7 2.66-2.75.67 1.1 1.54 2.06 2.57 2.84h-.17m8.59 13.2c0-.44-.44-.53-.8-.27-.84.72-1.77 1.35-2.75 1.86v-9.04h.98c.74 2.2 1.66 4.33 2.75 6.38.97 1.88 2.16 3.64 3.55 5.23.45.43 1.06.65 1.68.62h1.51c.62 0 .71-.62.35-.98a26.86 26.86 0 0 1-4.96-6.03h.35c.26 0 .51-.09.71-.27.97-.8 1.86-1.69 2.66-2.66.35-.44.27-.98-.35-.98h-1.24c-.38-.04-.75.13-.98.44-.53.84-1.12 1.64-1.77 2.39a40.96 40.96 0 0 1-1.95-4.26h4.96c.71 0 .98-.27.98-.98v-7.8c0-1.24-.53-1.95-2.04-1.95h-9.22c-.39 0-.71.32-.71.71v21.72c0 .44.36.8.8.79.12 0 .24-.03.35-.08 1.88-.66 3.55-1.79 4.88-3.28.22-.21.35-.5.35-.8l-.09-.76zm2.48-16.4c.27 0 .35.09.35.35v2.3h-6.38v-2.66l6.03.01zm-6.03 4.43h6.38v2.57h-6.38v-2.57zm14.36 1.34c.41.01.82-.11 1.15-.35 2.3-1.77 4.08-4.17 6.12-6.38.31-.15.43-.52.28-.83a.61.61 0 0 0-.72-.32h-1.68c-.44-.09-.89.08-1.15.44l-1.77 2.48-1.24 1.6c-.74.88-1.54 1.71-2.39 2.48-.2.21-.2.55.02.75.07.07.16.11.25.14l1.13-.01zm4.35 15.86c.34 0 .62-.28.62-.62V38.42l2.57-3.1a.64.64 0 0 0-.53-1.16h-1.42c-.44-.09-.89.08-1.15.44-1.77 2.13-3.1 4.79-5.85 7.18-.35.35-.27.98.27.98h1.06c.35-.02.69-.15.98-.35l1.42-1.24c-.07.5-.1 1-.09 1.51v9.31c0 .34.28.62.62.62l1.5-.1zm7.53-1.06c0 .44.18.62.71.62h4.34c1.86 0 2.66-.8 2.66-2.66V38.68h3.37a.702.702 0 0 0 .8-.8v-.62a.711.711 0 0 0-.8-.8h-14.1a.711.711 0 0 0-.8.8v.62a.702.702 0 0 0 .8.8h7.62v10.73c0 .53-.27.71-.71.71h-3.28c-.34 0-.62.28-.62.62l.01.71zm-1.77-19.68h11.79a.711.711 0 0 0 .8-.8v-.62a.711.711 0 0 0-.8-.8h-11.79a.711.711 0 0 0-.8.8v.62a.711.711 0 0 0 .8.8"/></svg>